# xmcd
#
# Track frame offsets:
#	150
#	17549
#	33222
#	48295
#	63143
#	75291
#	92539
#	101913
#	119837
#	129511
#	146910
#	160859
#	174882
#	186131
#	210505
#	224754
#	239003
#	252127
#	264800
#	275373
#
# Disc length: 3805 seconds
#
# Revision: 1
# Processed by: cddbd v1.4PL0 Copyright (c) Steve Scherf et al.
# Submitted via: audiograbber 1.81.02
#
DISCID=120edb14
DTITLE=David Allan Coe - Nothing Sacred
DYEAR=1980
DGENRE=Country
TTITLE0=Nothing Sacred
TTITLE1=Pussy Whipped Again
TTITLE2=Cum Stains on the Pillow
TTITLE3=Linda Lovelace
TTITLE4=Fuck Anita Bryant
TTITLE5=Jimmy Buffet
TTITLE6=Biggest Lies
TTITLE7=Whips and Things
TTITLE8=Rails
TTITLE9=Masturbation Blues
TTITLE10=Rock 'n Roll Fever
TTITLE11=Panhead Forever
TTITLE12=Nigger Fucker
TTITLE13=Coffee
TTITLE14=One Monkey
TTITLE15=One More Time
TTITLE16=Little Susie Shallow Throat
TTITLE17=Pick 'em, Lick "em, Stick 'em
TTITLE18=Don't Bite the Dick
TTITLE19=Fuckin' in the Butt
EXTD=This data was compiled from a bootleg import CD, so the date is probably i
EXTD=ncorrect.
EXTT0=
EXTT1=
EXTT2=
EXTT3=
EXTT4=
EXTT5=
EXTT6=
EXTT7=
EXTT8=
EXTT9=
EXTT10=
EXTT11=
EXTT12=
EXTT13=
EXTT14=
EXTT15=
EXTT16=
EXTT17=
EXTT18=
EXTT19=
PLAYORDER=
